<svg width="40" height="6" viewBox="0 0 40 6" fill="none" xmlns="http://www.w3.org/2000/svg">
<path d="M10.0907 2.14331C10.232 2.14331 10.3213 2.10958 10.3582 2.04232C10.3953 1.97485 10.4138 1.91439 10.4138 1.8605C10.4138 1.78645 10.3903 1.7158 10.3432 1.64834C10.2961 1.58108 10.1985 1.53059 10.0502 1.49685C9.96932 1.48327 9.87512 1.4733 9.76734 1.46651C9.65957 1.45972 9.57894 1.45633 9.52484 1.45633C9.41027 1.45633 9.28573 1.46142 9.15122 1.47139C9.0165 1.48158 8.91211 1.50682 8.83807 1.54713C8.73708 1.60102 8.67322 1.68016 8.64627 1.78454C8.61933 1.88893 8.61254 2.00838 8.62612 2.1431H10.0909L10.0907 2.14331ZM8.81791 5.51692C8.61593 5.51692 8.42393 5.51353 8.24231 5.50674C8.06049 5.49995 7.88864 5.4747 7.72718 5.43099C7.56551 5.38729 7.41742 5.31812 7.2827 5.22392C7.14798 5.12972 7.02683 4.995 6.91905 4.81975C6.8047 4.62435 6.73065 4.37697 6.69692 4.07739C6.6634 3.77761 6.64642 3.38553 6.64642 2.90052C6.64642 2.65802 6.64642 2.42591 6.64642 2.20357C6.64642 1.98122 6.6583 1.77436 6.68185 1.58235C6.7054 1.39035 6.74741 1.21361 6.80809 1.05216C6.86877 0.890489 6.95958 0.748976 7.08093 0.627831C7.20208 0.499896 7.35526 0.400603 7.54048 0.329741C7.72548 0.259091 7.92937 0.206899 8.15151 0.173165C8.37364 0.139431 8.60766 0.119275 8.85356 0.112486C9.09945 0.105697 9.35023 0.102303 9.6061 0.102303C10.1516 0.102303 10.6026 0.119063 10.9595 0.152797C11.3163 0.186319 11.6026 0.290703 11.8181 0.46595C11.946 0.56694 12.0487 0.69148 12.1262 0.83957C12.2036 0.987872 12.2626 1.14275 12.3029 1.30421C12.3432 1.46588 12.3685 1.62903 12.3786 1.79409C12.3888 1.95916 12.3939 2.11552 12.3939 2.26382C12.3939 2.43886 12.3787 2.61559 12.3485 2.79402C12.3182 2.97245 12.2257 3.12223 12.0708 3.24359C11.9832 3.31764 11.8975 3.36134 11.8132 3.37492C11.729 3.3885 11.6399 3.39508 11.5455 3.39508H8.62633C8.61954 3.46912 8.62463 3.54656 8.64161 3.62739C8.65837 3.70823 8.68361 3.7757 8.71735 3.82937C8.80497 3.9641 8.93121 4.03984 9.09606 4.0566C9.26112 4.07336 9.43107 4.08185 9.6061 4.08185H12.2021V5.51607H8.81834L8.81791 5.51692Z" fill="#FEFEFE"/>
<path d="M17.6462 5.05228C17.6059 5.16664 17.5537 5.25935 17.4897 5.33C17.4258 5.40066 17.3535 5.45454 17.2726 5.49167C17.1918 5.5288 17.1042 5.55235 17.01 5.56254C16.9158 5.57272 16.8182 5.5776 16.717 5.5776C16.616 5.5776 16.5184 5.57251 16.424 5.56254C16.3298 5.55235 16.2421 5.5288 16.1613 5.49167C16.0805 5.45476 16.0081 5.40087 15.9441 5.33C15.88 5.25935 15.8278 5.16664 15.7875 5.05228L14.939 2.65823C14.9055 2.56403 14.8684 2.51693 14.8279 2.51693C14.7808 2.51693 14.7572 2.55724 14.7572 2.63808L14.8582 5.51692H12.8785V1.12302C12.8785 0.947985 12.9188 0.796501 12.9997 0.668354C13.0805 0.54042 13.1883 0.434338 13.323 0.350109C13.4577 0.266093 13.6092 0.203716 13.7774 0.163405C13.9459 0.123094 14.1209 0.102727 14.3028 0.102727C14.673 0.102727 14.9694 0.165103 15.1917 0.28943C15.4139 0.41397 15.5789 0.627831 15.6867 0.9308L16.5252 3.25399C16.5791 3.40887 16.6429 3.48631 16.717 3.48631C16.791 3.48631 16.8551 3.40887 16.9088 3.25399L17.7472 0.9308C17.855 0.627831 18.0199 0.41397 18.2422 0.28943C18.4643 0.164891 18.7607 0.102727 19.131 0.102727C19.3128 0.102727 19.488 0.122882 19.6563 0.163405C19.8247 0.203716 19.9762 0.266093 20.1107 0.350109C20.2455 0.434338 20.3532 0.54042 20.4341 0.668354C20.5149 0.796289 20.5552 0.947773 20.5552 1.12302V5.51692H18.5755L18.6765 2.62811C18.6765 2.57422 18.668 2.54069 18.6513 2.52712C18.6343 2.51354 18.6192 2.50696 18.6059 2.50696C18.5655 2.50696 18.5284 2.55406 18.4947 2.64826L17.6462 5.05228V5.05228Z" fill="#FEFEFE"/>
<path d="M24.4847 2.14331C24.626 2.14331 24.7153 2.10958 24.7522 2.04232C24.7894 1.97485 24.8078 1.91439 24.8078 1.8605C24.8078 1.78645 24.7843 1.7158 24.7372 1.64834C24.6901 1.58108 24.5925 1.53059 24.4442 1.49685C24.3633 1.48327 24.2691 1.4733 24.1614 1.46651C24.0536 1.45972 23.973 1.45633 23.9189 1.45633C23.8043 1.45633 23.6797 1.46142 23.5452 1.47139C23.4105 1.48158 23.3061 1.50682 23.2321 1.54713C23.1311 1.60102 23.0672 1.68016 23.0403 1.78454C23.0133 1.88893 23.0066 2.00838 23.0201 2.1431H24.4849L24.4847 2.14331ZM23.2119 5.51692C23.0099 5.51692 22.8179 5.51353 22.6363 5.50674C22.4545 5.49995 22.2827 5.4747 22.1212 5.43099C21.9595 5.38729 21.8114 5.31812 21.6767 5.22392C21.542 5.12972 21.4208 4.995 21.3131 4.81975C21.1987 4.62435 21.1247 4.37697 21.0909 4.07739C21.0574 3.77761 21.0404 3.38553 21.0404 2.90052C21.0404 2.65802 21.0404 2.42591 21.0404 2.20357C21.0404 1.98122 21.0523 1.77436 21.0759 1.58235C21.0994 1.39035 21.1414 1.21361 21.2021 1.05216C21.2628 0.890489 21.3536 0.748976 21.4749 0.627831C21.5961 0.499896 21.7493 0.400603 21.9345 0.329741C22.1195 0.259091 22.3234 0.206899 22.5455 0.173165C22.7677 0.139431 23.0017 0.119275 23.2476 0.112486C23.4935 0.105697 23.7442 0.102303 24.0001 0.102303C24.5456 0.102303 24.9966 0.119063 25.3535 0.152797C25.7104 0.186319 25.9966 0.290703 26.2121 0.46595C26.3401 0.56694 26.4427 0.69148 26.5202 0.83957C26.5976 0.987872 26.6566 1.14275 26.6969 1.30421C26.7372 1.46588 26.7625 1.62903 26.7727 1.79409C26.7828 1.95916 26.7879 2.11552 26.7879 2.26382C26.7879 2.43886 26.7727 2.61559 26.7425 2.79402C26.7122 2.97245 26.6197 3.12223 26.4648 3.24359C26.3772 3.31764 26.2915 3.36134 26.2072 3.37492C26.123 3.3885 26.0339 3.39508 25.9395 3.39508H23.0203C23.0136 3.46912 23.0186 3.54656 23.0356 3.62739C23.0524 3.70823 23.0776 3.7757 23.1114 3.82937C23.199 3.9641 23.3252 4.03984 23.4901 4.0566C23.6551 4.07336 23.8251 4.08185 24.0001 4.08185H26.5961V5.51607H23.2124L23.2119 5.51692Z" fill="#FEFEFE"/>
<path d="M31.0098 5.51692V3.47655H29.2522V5.51692H27.2725V0.163405H29.2522V2.04232H31.0098V0.163405H32.9895V5.51692H31.0098Z" fill="#FEFEFE"/>
<path d="M35.2927 5.51692V1.57747H33.2926V0.163405H39.2725V1.57747H37.2724V5.51692H35.2927Z" fill="#FEFEFE"/>
<path d="M0.848425 5.51692C0.754225 5.51692 0.65663 5.50674 0.555428 5.48658C0.454438 5.46643 0.353449 5.40914 0.252459 5.31494C0.14468 5.22074 0.0757273 5.12145 0.045388 5.01685C0.0150486 4.91247 -1.52588e-05 4.80299 -1.52588e-05 4.68864V0.163405H1.97968V3.66834C1.97968 3.72223 1.98307 3.77782 1.98986 3.8351C1.99665 3.89239 2.0236 3.94458 2.0707 3.99168C2.12459 4.04557 2.18017 4.07421 2.23746 4.07761C2.29474 4.081 2.35033 4.0827 2.40422 4.0827H3.74764V0.163618H5.72733V4.0827H6.56559V5.51692H0.848425V5.51692Z" fill="#FEFEFE"/>
</svg>
