<svg width="36" height="8" viewBox="0 0 36 8" fill="none" xmlns="http://www.w3.org/2000/svg">
<path d="M2.24993 4.77813C2.24993 4.89758 2.2599 4.98881 2.27985 5.05203C2.29979 5.11504 2.32949 5.15981 2.36938 5.18633C2.40926 5.21285 2.45891 5.2277 2.51874 5.2311C2.57836 5.23449 2.64816 5.23598 2.72772 5.23598H4.05162C4.11782 5.23598 4.20247 5.2311 4.30537 5.22113C4.40827 5.21115 4.4961 5.17296 4.56909 5.10656C4.63549 5.04694 4.67368 4.97565 4.68365 4.89249C4.69363 4.80953 4.69851 4.73824 4.69851 4.67841C4.69851 4.59885 4.69193 4.52587 4.67856 4.45946C4.6652 4.39305 4.62213 4.33343 4.54914 4.28018C4.47616 4.22056 4.39151 4.18556 4.29518 4.17559C4.19907 4.16561 4.1176 4.16073 4.05141 4.16073H2.24972V4.77792L2.24993 4.77813ZM6.59991 1.7321H2.67786C2.57157 1.7321 2.49031 1.74207 2.43388 1.7618C2.37744 1.78175 2.33607 1.80997 2.30934 1.84646C2.28282 1.88295 2.26627 1.92602 2.25969 1.97588C2.2529 2.02552 2.24972 2.08366 2.24972 2.15006V2.6478H5.46505C5.73705 2.6478 5.96936 2.69426 6.1618 2.78719C6.35423 2.88012 6.50359 2.9862 6.60967 3.10565C6.7026 3.21194 6.77559 3.33627 6.82863 3.47884C6.88167 3.62163 6.92155 3.7676 6.94807 3.91675C6.97459 4.06611 6.99114 4.21208 6.99793 4.35465C7.00451 4.49722 7.0079 4.62834 7.0079 4.74779C7.0079 5.0463 6.98626 5.34673 6.94319 5.64863C6.90012 5.95054 6.79213 6.21108 6.61964 6.43003C6.5997 6.46313 6.56151 6.50959 6.50508 6.56942C6.44864 6.62925 6.37247 6.68887 6.27615 6.7487C6.17983 6.80832 6.06696 6.85987 5.93775 6.90294C5.80833 6.94601 5.65727 6.96765 5.48478 6.96765H0.975466C0.683529 6.96765 0.447816 6.87642 0.26875 6.69396C0.0894719 6.5115 -6.10352e-05 6.27749 -6.10352e-05 5.99213V1.11449C-6.10352e-05 0.849078 0.0447054 0.641794 0.134238 0.492431C0.223771 0.343068 0.328368 0.231895 0.447816 0.158911C0.567264 0.0859266 0.688409 0.0411601 0.811039 0.0246114C0.933882 0.00806265 1.02511 -0.000211716 1.08473 -0.000211716H6.59949V1.73189L6.59991 1.7321Z" fill="#FEFEFE"/>
<path d="M10.8803 3.64327C11.0197 3.64327 11.1075 3.61017 11.144 3.54376C11.1805 3.47736 11.1988 3.41774 11.1988 3.36449C11.1988 3.2915 11.1754 3.2217 11.129 3.1555C11.0825 3.0891 10.9862 3.03924 10.8402 3.00614C10.7606 2.99299 10.6677 2.98302 10.5614 2.97644C10.4551 2.96965 10.3756 2.96647 10.3225 2.96647C10.2097 2.96647 10.087 2.97156 9.95421 2.98153C9.8214 2.9915 9.71871 3.01633 9.64551 3.05621C9.54601 3.10925 9.48299 3.18733 9.45647 3.29002C9.42995 3.39292 9.42338 3.51067 9.43653 3.64348H10.8799L10.8803 3.64327ZM9.62621 6.96808C9.4272 6.96808 9.23795 6.96468 9.05888 6.95811C8.8796 6.95153 8.71051 6.92671 8.55117 6.88343C8.39184 6.84036 8.24587 6.77225 8.11327 6.67932C7.98067 6.5864 7.86101 6.45379 7.75493 6.28109C7.64205 6.08866 7.56907 5.84489 7.53597 5.54955C7.50288 5.25422 7.48611 4.86766 7.48611 4.38987C7.48611 4.15097 7.48611 3.92205 7.48611 3.7031C7.48611 3.48415 7.49778 3.28004 7.52091 3.09101C7.54404 2.90176 7.58562 2.72757 7.64524 2.56845C7.70507 2.40911 7.7946 2.26972 7.91405 2.15027C8.0335 2.02425 8.18434 1.92623 8.36702 1.85664C8.54948 1.78684 8.7504 1.7355 8.96935 1.7024C9.1883 1.6693 9.41892 1.64936 9.66121 1.64278C9.9035 1.6362 10.1507 1.63281 10.4027 1.63281C10.9403 1.63281 11.3848 1.64936 11.7366 1.68267C12.0884 1.71576 12.3703 1.81866 12.5827 1.99136C12.7087 2.09087 12.8099 2.21371 12.8863 2.35968C12.9627 2.50565 13.0206 2.65819 13.0605 2.81753C13.1004 2.97686 13.1252 3.13768 13.1352 3.30041C13.1451 3.46293 13.15 3.61738 13.15 3.76335C13.15 3.93584 13.1352 4.11003 13.1053 4.28591C13.0756 4.46179 12.9841 4.60946 12.8316 4.72891C12.7452 4.80189 12.6606 4.84496 12.5778 4.85833C12.4949 4.87148 12.4068 4.87827 12.3141 4.87827H9.43717C9.43059 4.95125 9.43547 5.02763 9.45223 5.10719C9.46878 5.18697 9.4936 5.25316 9.52691 5.3062C9.61326 5.43881 9.73759 5.5137 9.90011 5.53025C10.0626 5.5468 10.2302 5.55507 10.4027 5.55507H12.961V6.9685H9.62621V6.96808Z" fill="#FEFEFE"/>
<path d="M15.5689 2.10042C15.5757 2.08047 15.5971 2.04398 15.6336 1.99094C15.6701 1.9379 15.7299 1.88465 15.8129 1.83161C15.8958 1.77856 16.0053 1.7321 16.1413 1.69221C16.2773 1.65233 16.4517 1.63238 16.6639 1.63238C16.8762 1.63238 17.0504 1.65233 17.1864 1.69221C17.3224 1.7321 17.4321 1.77835 17.5149 1.83161C17.5978 1.88465 17.6559 1.9379 17.689 1.99094C17.7221 2.04398 17.7455 2.08047 17.7588 2.10042L20.0982 6.96808H18.1471L16.7636 3.56371C16.7568 3.55034 16.7453 3.52382 16.7288 3.48415C16.7122 3.44426 16.6906 3.42431 16.6641 3.42431C16.6376 3.42431 16.6159 3.44426 16.5994 3.48415C16.5828 3.52403 16.5712 3.55034 16.5646 3.56371L15.1809 6.96808H13.2298L15.5689 2.10042Z" fill="#FEFEFE"/>
<path d="M26.6481 1.69221H28.5991V6.96808H26.6481V1.69221V1.69221ZM22.2482 5.11653C22.2482 5.18272 22.2565 5.24743 22.2731 5.31066C22.2896 5.37367 22.3178 5.42183 22.3577 5.45493C22.4241 5.52134 22.5268 5.55443 22.6664 5.55443H23.4627C23.5556 5.55443 23.6337 5.55104 23.6967 5.54446C23.7597 5.53789 23.811 5.51794 23.8509 5.48484C23.9171 5.43838 23.9555 5.38195 23.9653 5.31575C23.9752 5.24934 23.9803 5.18973 23.9803 5.13647C23.9803 5.08343 23.9769 5.02869 23.9704 4.97226C23.9638 4.91582 23.9339 4.86766 23.8808 4.82799C23.8675 4.82141 23.8327 4.80635 23.7762 4.78322C23.7198 4.7601 23.6154 4.74843 23.4627 4.74843H22.2482V5.11674V5.11653ZM22.2482 1.69221V3.45402H24.6272C24.906 3.45402 25.1267 3.50536 25.2892 3.60826C25.4517 3.71116 25.5694 3.80897 25.6424 3.9019C25.7353 4.02134 25.8134 4.19235 25.8764 4.41469C25.9394 4.63704 25.9708 4.94722 25.9708 5.34545C25.9708 5.44496 25.9675 5.55125 25.9609 5.66412C25.9541 5.77699 25.9378 5.89135 25.911 6.00762C25.8845 6.12367 25.8448 6.23824 25.7916 6.35111C25.7385 6.46398 25.6622 6.56688 25.5626 6.65981C25.4167 6.7992 25.2673 6.88533 25.1148 6.91864C24.962 6.95174 24.7961 6.9685 24.617 6.9685H21.3421C21.2292 6.9685 21.1015 6.95514 20.9589 6.92862C20.8161 6.9021 20.6852 6.82572 20.5658 6.69969C20.5259 6.65981 20.4712 6.57855 20.4016 6.4557C20.3318 6.33307 20.297 6.15549 20.297 5.92317V1.69264H22.248L22.2482 1.69221Z" fill="#FEFEFE"/>
<path d="M33.3276 6.96808L33.4271 4.23054C33.4271 4.19065 33.4237 4.15416 33.4171 4.12106C33.4104 4.08796 33.3872 4.0712 33.3473 4.0712C33.3142 4.0712 33.2843 4.08775 33.2578 4.12106C33.2313 4.15416 33.2014 4.19086 33.1683 4.23054L31.2968 6.56985C31.217 6.66935 31.1408 6.75061 31.0679 6.81384C30.9949 6.87685 30.9202 6.92331 30.8438 6.95323C30.7674 6.98314 30.6862 7.00309 30.5998 7.01306C30.5137 7.02303 30.4174 7.02791 30.3113 7.02791C30.205 7.02791 30.0872 7.01942 29.9578 7.00309C29.8284 6.98654 29.7073 6.94326 29.5946 6.87367C29.4817 6.80386 29.3871 6.70436 29.3109 6.57515C29.2346 6.44573 29.1964 6.26476 29.1964 6.03265V1.69243H31.1474L31.0479 4.42997C31.0479 4.47643 31.0528 4.51293 31.0628 4.53945C31.0727 4.56597 31.0976 4.57933 31.1374 4.57933C31.1773 4.57933 31.2121 4.56109 31.242 4.52459C31.272 4.4881 31.2968 4.4567 31.3167 4.43018L33.2279 2.03104C33.2678 1.98458 33.3094 1.93663 33.3522 1.88677C33.3955 1.83691 33.4517 1.79384 33.5215 1.75735C33.5911 1.72086 33.6741 1.69094 33.7704 1.66782C33.8667 1.64469 33.991 1.63302 34.1438 1.63302C34.4224 1.63302 34.6381 1.6763 34.7909 1.76244C34.9434 1.84879 35.0563 1.9483 35.1293 2.06095C35.2023 2.17383 35.2454 2.28988 35.2585 2.40954C35.2719 2.52899 35.2785 2.62191 35.2785 2.68811V6.9685H33.3274L33.3276 6.96808Z" fill="#FEFEFE"/>
</svg>
