<?xml version="1.0" encoding="UTF-8"?>
<!DOCTYPE svg PUBLIC "-//W3C//DTD SVG 1.1//EN" "http://www.w3.org/Graphics/SVG/1.1/DTD/svg11.dtd">
<!-- Creator: CorelDRAW 2020 (64-Bit) -->
<svg xmlns="http://www.w3.org/2000/svg" xml:space="preserve" width="47.2726mm" height="13.5776mm" version="1.1" style="shape-rendering:geometricPrecision; text-rendering:geometricPrecision; image-rendering:optimizeQuality; fill-rule:evenodd; clip-rule:evenodd"
viewBox="0 0 2228.11 639.96"
 xmlns:xlink="http://www.w3.org/1999/xlink"
 xmlns:xodm="http://www.corel.com/coreldraw/odm/2003">
 <defs>
  <style type="text/css">
   <![CDATA[
    .fil0 {fill:#FEFEFE;fill-rule:nonzero}
   ]]>
  </style>
 </defs>
 <g id="Слой_x0020_1">
  <metadata id="CorelCorpID_0Corel-Layer"/>
  <g id="_2248559435952">
   <g>
    <path class="fil0" d="M852.67 478.09c6.66,0 10.87,-1.59 12.61,-4.76 1.75,-3.18 2.62,-6.03 2.62,-8.57 0,-3.49 -1.11,-6.82 -3.33,-10 -2.22,-3.17 -6.82,-5.55 -13.81,-7.14 -3.81,-0.64 -8.25,-1.11 -13.33,-1.43 -5.08,-0.32 -8.88,-0.48 -11.43,-0.48 -5.4,0 -11.27,0.24 -17.61,0.71 -6.35,0.48 -11.27,1.67 -14.76,3.57 -4.76,2.54 -7.77,6.27 -9.04,11.19 -1.27,4.92 -1.59,10.55 -0.95,16.9l69.04 0zm-59.99 159.01c-9.52,0 -18.57,-0.16 -27.13,-0.48 -8.57,-0.32 -16.67,-1.51 -24.28,-3.57 -7.62,-2.06 -14.6,-5.32 -20.95,-9.76 -6.35,-4.44 -12.06,-10.79 -17.14,-19.05 -5.39,-9.21 -8.88,-20.87 -10.47,-34.99 -1.58,-14.13 -2.38,-32.61 -2.38,-55.47 0,-11.43 0,-22.37 0,-32.85 0,-10.48 0.56,-20.23 1.67,-29.28 1.11,-9.05 3.09,-17.38 5.95,-24.99 2.86,-7.62 7.14,-14.29 12.86,-20 5.71,-6.03 12.93,-10.71 21.66,-14.05 8.72,-3.33 18.33,-5.79 28.8,-7.38 10.47,-1.59 21.5,-2.54 33.09,-2.86 11.59,-0.32 23.41,-0.48 35.47,-0.48 25.71,0 46.97,0.79 63.79,2.38 16.82,1.58 30.31,6.5 40.47,14.76 6.03,4.76 10.87,10.63 14.52,17.61 3.65,6.99 6.43,14.29 8.33,21.9 1.9,7.62 3.09,15.31 3.57,23.09 0.48,7.78 0.72,15.15 0.72,22.14 0,8.25 -0.72,16.58 -2.14,24.99 -1.43,8.41 -5.79,15.47 -13.09,21.19 -4.13,3.49 -8.17,5.55 -12.14,6.19 -3.97,0.64 -8.17,0.95 -12.62,0.95l-137.59 0c-0.32,3.49 -0.08,7.14 0.72,10.95 0.79,3.81 1.98,6.99 3.57,9.52 4.13,6.35 10.08,9.92 17.85,10.71 7.78,0.79 15.79,1.19 24.04,1.19l122.36 0 0 67.6 -159.49 0z"/>
    <path class="fil0" d="M1208.79 615.2c-1.9,5.39 -4.36,9.76 -7.38,13.09 -3.01,3.33 -6.42,5.87 -10.23,7.62 -3.81,1.75 -7.94,2.86 -12.38,3.34 -4.44,0.48 -9.04,0.71 -13.81,0.71 -4.76,0 -9.36,-0.24 -13.81,-0.71 -4.44,-0.48 -8.57,-1.59 -12.38,-3.34 -3.81,-1.74 -7.22,-4.28 -10.24,-7.62 -3.02,-3.33 -5.48,-7.7 -7.38,-13.09l-39.99 -112.84c-1.58,-4.44 -3.33,-6.66 -5.24,-6.66 -2.22,0 -3.33,1.9 -3.33,5.71l4.76 135.69 -93.31 0 0 -207.1c0,-8.25 1.9,-15.39 5.71,-21.43 3.81,-6.03 8.89,-11.03 15.24,-15 6.35,-3.96 13.49,-6.9 21.42,-8.8 7.94,-1.9 16.19,-2.86 24.76,-2.86 17.45,0 31.42,2.94 41.9,8.8 10.47,5.87 18.25,15.95 23.33,30.23l39.52 109.5c2.54,7.3 5.55,10.95 9.04,10.95 3.49,0 6.51,-3.65 9.04,-10.95l39.52 -109.5c5.08,-14.28 12.85,-24.36 23.33,-30.23 10.47,-5.87 24.44,-8.8 41.89,-8.8 8.57,0 16.83,0.95 24.76,2.86 7.94,1.9 15.08,4.84 21.42,8.8 6.35,3.97 11.43,8.97 15.24,15 3.81,6.03 5.71,13.17 5.71,21.43l0 207.1 -93.31 0 4.76 -136.16c0,-2.54 -0.4,-4.12 -1.19,-4.76 -0.8,-0.64 -1.51,-0.95 -2.14,-0.95 -1.9,0 -3.65,2.22 -5.24,6.66l-39.99 113.31z"/>
    <path class="fil0" d="M1531.11 478.09c6.66,0 10.87,-1.59 12.61,-4.76 1.75,-3.18 2.62,-6.03 2.62,-8.57 0,-3.49 -1.11,-6.82 -3.33,-10 -2.22,-3.17 -6.82,-5.55 -13.81,-7.14 -3.81,-0.64 -8.25,-1.11 -13.33,-1.43 -5.08,-0.32 -8.88,-0.48 -11.43,-0.48 -5.4,0 -11.27,0.24 -17.61,0.71 -6.35,0.48 -11.27,1.67 -14.76,3.57 -4.76,2.54 -7.77,6.27 -9.04,11.19 -1.27,4.92 -1.59,10.55 -0.95,16.9l69.04 0zm-59.99 159.01c-9.52,0 -18.57,-0.16 -27.13,-0.48 -8.57,-0.32 -16.67,-1.51 -24.28,-3.57 -7.62,-2.06 -14.6,-5.32 -20.95,-9.76 -6.35,-4.44 -12.06,-10.79 -17.14,-19.05 -5.39,-9.21 -8.88,-20.87 -10.47,-34.99 -1.58,-14.13 -2.38,-32.61 -2.38,-55.47 0,-11.43 0,-22.37 0,-32.85 0,-10.48 0.56,-20.23 1.67,-29.28 1.11,-9.05 3.09,-17.38 5.95,-24.99 2.86,-7.62 7.14,-14.29 12.86,-20 5.71,-6.03 12.93,-10.71 21.66,-14.05 8.72,-3.33 18.33,-5.79 28.8,-7.38 10.47,-1.59 21.5,-2.54 33.09,-2.86 11.59,-0.32 23.41,-0.48 35.47,-0.48 25.71,0 46.97,0.79 63.79,2.38 16.82,1.58 30.31,6.5 40.47,14.76 6.03,4.76 10.87,10.63 14.52,17.61 3.65,6.99 6.43,14.29 8.33,21.9 1.9,7.62 3.09,15.31 3.57,23.09 0.48,7.78 0.72,15.15 0.72,22.14 0,8.25 -0.72,16.58 -2.14,24.99 -1.43,8.41 -5.79,15.47 -13.09,21.19 -4.13,3.49 -8.17,5.55 -12.14,6.19 -3.97,0.64 -8.17,0.95 -12.62,0.95l-137.59 0c-0.32,3.49 -0.08,7.14 0.72,10.95 0.79,3.81 1.98,6.99 3.57,9.52 4.13,6.35 10.08,9.92 17.85,10.71 7.78,0.79 15.79,1.19 24.04,1.19l122.36 0 0 67.6 -159.49 0z"/>
    <polygon class="fil0" points="1838.66,637.1 1838.66,540.93 1755.82,540.93 1755.82,637.1 1662.51,637.1 1662.51,384.77 1755.82,384.77 1755.82,473.33 1838.66,473.33 1838.66,384.77 1931.97,384.77 1931.97,637.1 "/>
    <polygon class="fil0" points="2040.53,637.1 2040.53,451.42 1946.26,451.42 1946.26,384.77 2228.11,384.77 2228.11,451.42 2133.84,451.42 2133.84,637.1 "/>
    <path class="fil0" d="M417.05 637.1c-4.44,0 -9.04,-0.48 -13.81,-1.43 -4.76,-0.95 -9.52,-3.65 -14.28,-8.09 -5.08,-4.44 -8.33,-9.12 -9.76,-14.05 -1.43,-4.92 -2.14,-10.08 -2.14,-15.47l0 -213.29 93.31 0 0 165.2c0,2.54 0.16,5.16 0.48,7.86 0.32,2.7 1.59,5.16 3.81,7.38 2.54,2.54 5.16,3.89 7.86,4.05 2.7,0.16 5.32,0.24 7.86,0.24l63.32 0 0 -184.72 93.31 0 0 184.72 39.51 0 0 67.6 -269.47 0z"/>
   </g>
  </g>
 </g>
</svg>
