<?xml version="1.0" encoding="UTF-8"?>
<!DOCTYPE svg PUBLIC "-//W3C//DTD SVG 1.1//EN" "http://www.w3.org/Graphics/SVG/1.1/DTD/svg11.dtd">
<!-- Creator: CorelDRAW 2020 (64-Bit) -->
<svg xmlns="http://www.w3.org/2000/svg" xml:space="preserve" width="47.2726mm" height="13.7767mm" version="1.1" style="shape-rendering:geometricPrecision; text-rendering:geometricPrecision; image-rendering:optimizeQuality; fill-rule:evenodd; clip-rule:evenodd"
viewBox="0 0 2228.11 649.34"
 xmlns:xlink="http://www.w3.org/1999/xlink"
 xmlns:xodm="http://www.corel.com/coreldraw/odm/2003">
 <defs>
  <style type="text/css">
   <![CDATA[
    .fil0 {fill:#FEFEFE;fill-rule:nonzero}
   ]]>
  </style>
 </defs>
 <g id="Слой_x0020_1">
  <metadata id="CorelCorpID_0Corel-Layer"/>
  <g id="_1957142907808">
   <g>
    <path class="fil0" d="M106.04 234.59c0,5.63 0.47,9.93 1.41,12.91 0.94,2.97 2.34,5.08 4.22,6.33 1.88,1.25 4.22,1.95 7.04,2.11 2.81,0.16 6.1,0.23 9.85,0.23l62.4 0c3.12,0 7.11,-0.23 11.96,-0.7 4.85,-0.47 8.99,-2.27 12.43,-5.4 3.13,-2.81 4.93,-6.17 5.4,-10.09 0.47,-3.91 0.7,-7.27 0.7,-10.09 0,-3.75 -0.31,-7.19 -0.94,-10.32 -0.63,-3.13 -2.66,-5.94 -6.1,-8.45 -3.44,-2.81 -7.43,-4.46 -11.97,-4.93 -4.53,-0.47 -8.37,-0.7 -11.49,-0.7l-84.92 0 0 29.09zm205.03 -143.57l-184.86 0c-5.01,0 -8.84,0.47 -11.5,1.4 -2.66,0.94 -4.61,2.27 -5.87,3.99 -1.25,1.72 -2.03,3.75 -2.34,6.1 -0.32,2.34 -0.47,5.08 -0.47,8.21l0 23.46 151.55 0c12.82,0 23.77,2.19 32.84,6.57 9.07,4.38 16.11,9.38 21.11,15.01 4.38,5.01 7.82,10.87 10.32,17.59 2.5,6.73 4.38,13.61 5.63,20.64 1.25,7.04 2.03,13.92 2.35,20.64 0.31,6.72 0.47,12.9 0.47,18.53 0,14.07 -1.02,28.23 -3.05,42.46 -2.03,14.23 -7.12,26.51 -15.25,36.83 -0.94,1.56 -2.74,3.75 -5.4,6.57 -2.66,2.82 -6.25,5.63 -10.79,8.45 -4.54,2.81 -9.86,5.24 -15.95,7.27 -6.1,2.03 -13.22,3.05 -21.35,3.05l-212.54 0c-13.76,0 -24.87,-4.3 -33.31,-12.9 -8.45,-8.6 -12.67,-19.63 -12.67,-33.08l0 -229.9c0,-12.51 2.11,-22.28 6.33,-29.32 4.22,-7.04 9.15,-12.28 14.78,-15.72 5.63,-3.44 11.34,-5.55 17.12,-6.33 5.79,-0.78 10.09,-1.17 12.9,-1.17l259.93 0 0 81.64z"/>
    <path class="fil0" d="M512.82 181.1c6.57,0 10.71,-1.56 12.43,-4.69 1.72,-3.13 2.58,-5.94 2.58,-8.45 0,-3.44 -1.1,-6.73 -3.29,-9.85 -2.19,-3.13 -6.73,-5.48 -13.61,-7.04 -3.75,-0.62 -8.13,-1.09 -13.14,-1.4 -5.01,-0.32 -8.76,-0.47 -11.26,-0.47 -5.32,0 -11.1,0.24 -17.36,0.71 -6.26,0.47 -11.1,1.64 -14.55,3.52 -4.69,2.5 -7.66,6.18 -8.91,11.02 -1.25,4.85 -1.56,10.4 -0.94,16.66l68.03 0zm-59.11 156.71c-9.38,0 -18.3,-0.16 -26.74,-0.47 -8.45,-0.31 -16.42,-1.48 -23.93,-3.52 -7.51,-2.03 -14.39,-5.24 -20.64,-9.62 -6.25,-4.38 -11.89,-10.63 -16.89,-18.77 -5.32,-9.07 -8.76,-20.56 -10.32,-34.48 -1.56,-13.92 -2.35,-32.14 -2.35,-54.66 0,-11.26 0,-22.05 0,-32.37 0,-10.32 0.55,-19.94 1.64,-28.85 1.09,-8.92 3.05,-17.13 5.86,-24.63 2.82,-7.51 7.04,-14.08 12.67,-19.71 5.63,-5.94 12.74,-10.56 21.35,-13.84 8.6,-3.29 18.07,-5.71 28.39,-7.27 10.32,-1.56 21.19,-2.5 32.61,-2.81 11.42,-0.31 23.07,-0.47 34.95,-0.47 25.34,0 46.29,0.78 62.87,2.35 16.58,1.56 29.87,6.41 39.88,14.55 5.94,4.69 10.71,10.48 14.31,17.36 3.6,6.88 6.33,14.07 8.21,21.58 1.88,7.51 3.05,15.09 3.52,22.76 0.47,7.66 0.7,14.94 0.7,21.82 0,8.13 -0.7,16.34 -2.11,24.63 -1.4,8.29 -5.71,15.25 -12.9,20.88 -4.07,3.44 -8.06,5.47 -11.96,6.1 -3.91,0.62 -8.06,0.94 -12.43,0.94l-135.6 0c-0.31,3.44 -0.08,7.04 0.71,10.79 0.78,3.76 1.95,6.88 3.52,9.38 4.07,6.25 9.93,9.78 17.59,10.56 7.66,0.78 15.56,1.17 23.69,1.17l120.58 0 0 66.62 -157.18 0z"/>
    <path class="fil0" d="M733.81 108.38c0.32,-0.94 1.33,-2.66 3.05,-5.16 1.72,-2.5 4.54,-5.01 8.45,-7.51 3.91,-2.5 9.07,-4.69 15.48,-6.57 6.41,-1.88 14.63,-2.82 24.63,-2.82 10.01,0 18.22,0.94 24.63,2.82 6.41,1.88 11.58,4.06 15.48,6.57 3.91,2.5 6.65,5.01 8.21,7.51 1.56,2.5 2.66,4.22 3.29,5.16l110.26 229.43 -91.96 0 -65.21 -160.46c-0.32,-0.63 -0.86,-1.88 -1.64,-3.75 -0.78,-1.88 -1.8,-2.82 -3.05,-2.82 -1.25,0 -2.27,0.94 -3.05,2.82 -0.78,1.88 -1.33,3.12 -1.64,3.75l-65.22 160.46 -91.96 0 110.25 -229.43z"/>
    <path class="fil0" d="M1256.01 89.15l91.96 0 0 248.67 -91.96 0 0 -248.67zm-207.38 161.4c0,3.12 0.39,6.17 1.17,9.15 0.78,2.97 2.11,5.24 3.99,6.8 3.13,3.13 7.97,4.69 14.55,4.69l37.53 0c4.38,0 8.06,-0.16 11.03,-0.47 2.97,-0.31 5.39,-1.25 7.27,-2.81 3.12,-2.19 4.93,-4.85 5.39,-7.97 0.47,-3.13 0.71,-5.94 0.71,-8.45 0,-2.5 -0.16,-5.08 -0.47,-7.74 -0.31,-2.66 -1.72,-4.93 -4.22,-6.8 -0.63,-0.31 -2.27,-1.02 -4.93,-2.11 -2.66,-1.09 -7.58,-1.64 -14.78,-1.64l-57.24 0 0 17.36zm0 -161.4l0 83.04 112.13 0c13.14,0 23.54,2.42 31.2,7.27 7.66,4.85 13.21,9.46 16.65,13.84 4.38,5.63 8.06,13.69 11.03,24.17 2.97,10.48 4.45,25.1 4.45,43.87 0,4.69 -0.16,9.7 -0.47,15.02 -0.32,5.32 -1.09,10.71 -2.35,16.19 -1.25,5.47 -3.12,10.87 -5.63,16.19 -2.5,5.32 -6.1,10.17 -10.79,14.55 -6.88,6.57 -13.92,10.63 -21.11,12.2 -7.2,1.56 -15.02,2.35 -23.46,2.35l-154.36 0c-5.32,0 -11.34,-0.63 -18.06,-1.88 -6.73,-1.25 -12.9,-4.85 -18.53,-10.79 -1.88,-1.88 -4.46,-5.71 -7.74,-11.5 -3.29,-5.78 -4.93,-14.15 -4.93,-25.1l0 -199.4 91.96 0z"/>
    <path class="fil0" d="M1570.84 337.81l4.69 -129.03c0,-1.88 -0.16,-3.6 -0.47,-5.16 -0.32,-1.56 -1.41,-2.35 -3.29,-2.35 -1.56,0 -2.97,0.78 -4.22,2.35 -1.25,1.56 -2.66,3.29 -4.22,5.16l-88.21 110.26c-3.76,4.69 -7.35,8.52 -10.79,11.5 -3.44,2.97 -6.96,5.16 -10.56,6.57 -3.6,1.41 -7.43,2.35 -11.5,2.82 -4.06,0.47 -8.6,0.7 -13.6,0.7 -5.01,0 -10.56,-0.4 -16.66,-1.17 -6.1,-0.78 -11.81,-2.82 -17.12,-6.1 -5.32,-3.29 -9.78,-7.98 -13.37,-14.07 -3.6,-6.1 -5.4,-14.63 -5.4,-25.57l0 -204.57 91.96 0 -4.69 129.03c0,2.19 0.23,3.91 0.7,5.16 0.47,1.25 1.64,1.88 3.52,1.88 1.88,0 3.52,-0.86 4.93,-2.58 1.41,-1.72 2.58,-3.2 3.52,-4.45l90.08 -113.08c1.88,-2.19 3.84,-4.45 5.86,-6.8 2.04,-2.35 4.69,-4.38 7.98,-6.1 3.28,-1.72 7.19,-3.13 11.73,-4.22 4.54,-1.09 10.4,-1.64 17.6,-1.64 13.13,0 23.3,2.04 30.5,6.1 7.19,4.07 12.51,8.76 15.95,14.07 3.44,5.32 5.47,10.79 6.09,16.43 0.63,5.63 0.94,10.01 0.94,13.13l0 201.75 -91.96 0z"/>
   </g>
   <path class="fil0" d="M1519.22 33.31c7.2,0 13.37,-0.78 18.54,-2.34 5.16,-1.56 10.4,-5.17 15.71,-10.8 5.32,-5.63 9.07,-12.35 11.26,-20.17l60.52 0c-2.5,10.94 -6.49,21.82 -11.97,32.61 -5.47,10.79 -11.96,19.63 -19.47,26.51 -5.63,5.01 -11.57,9 -17.83,11.97 -6.26,2.97 -12.59,5.24 -19,6.8 -6.41,1.57 -12.82,2.58 -19.24,3.05 -6.41,0.47 -12.59,0.71 -18.54,0.71 -5.94,0 -12.12,-0.24 -18.53,-0.71 -6.41,-0.47 -12.82,-1.48 -19.24,-3.05 -6.41,-1.56 -12.74,-3.83 -19,-6.8 -6.25,-2.97 -12.2,-6.96 -17.83,-11.97 -7.5,-6.88 -14,-15.72 -19.47,-26.51 -5.48,-10.79 -9.47,-21.66 -11.97,-32.61l60.52 0c2.19,7.82 5.94,14.54 11.26,20.17 5.32,5.63 10.56,9.23 15.72,10.8 5.16,1.56 11.34,2.34 18.53,2.34z"/>
  </g>
  <g id="_1957142927824">
   <path class="fil0" d="M852.67 487.47c6.66,0 10.87,-1.59 12.61,-4.76 1.75,-3.18 2.62,-6.03 2.62,-8.57 0,-3.49 -1.11,-6.82 -3.33,-10 -2.22,-3.17 -6.82,-5.55 -13.81,-7.14 -3.81,-0.64 -8.25,-1.11 -13.33,-1.43 -5.08,-0.32 -8.88,-0.48 -11.43,-0.48 -5.4,0 -11.27,0.24 -17.61,0.71 -6.35,0.48 -11.27,1.67 -14.76,3.57 -4.76,2.54 -7.77,6.27 -9.04,11.19 -1.27,4.92 -1.59,10.55 -0.95,16.9l69.04 0zm-59.99 159.01c-9.52,0 -18.57,-0.16 -27.13,-0.48 -8.57,-0.32 -16.67,-1.51 -24.28,-3.57 -7.62,-2.06 -14.6,-5.32 -20.95,-9.76 -6.35,-4.44 -12.06,-10.79 -17.14,-19.05 -5.39,-9.21 -8.88,-20.87 -10.47,-34.99 -1.58,-14.13 -2.38,-32.61 -2.38,-55.47 0,-11.43 0,-22.37 0,-32.85 0,-10.48 0.56,-20.23 1.67,-29.28 1.11,-9.05 3.09,-17.38 5.95,-24.99 2.86,-7.62 7.14,-14.29 12.86,-20 5.71,-6.03 12.93,-10.71 21.66,-14.05 8.72,-3.33 18.33,-5.79 28.8,-7.38 10.47,-1.59 21.5,-2.54 33.09,-2.86 11.59,-0.32 23.41,-0.48 35.47,-0.48 25.71,0 46.97,0.79 63.79,2.38 16.82,1.58 30.31,6.5 40.47,14.76 6.03,4.76 10.87,10.63 14.52,17.61 3.65,6.99 6.43,14.29 8.33,21.9 1.9,7.62 3.09,15.31 3.57,23.09 0.48,7.78 0.72,15.15 0.72,22.14 0,8.25 -0.72,16.58 -2.14,24.99 -1.43,8.41 -5.79,15.47 -13.09,21.19 -4.13,3.49 -8.17,5.55 -12.14,6.19 -3.97,0.64 -8.17,0.95 -12.62,0.95l-137.59 0c-0.32,3.49 -0.08,7.14 0.72,10.95 0.79,3.81 1.98,6.99 3.57,9.52 4.13,6.35 10.08,9.92 17.85,10.71 7.78,0.79 15.79,1.19 24.04,1.19l122.36 0 0 67.6 -159.49 0z"/>
   <path class="fil0" d="M1208.79 624.59c-1.9,5.39 -4.36,9.76 -7.38,13.09 -3.01,3.33 -6.42,5.87 -10.23,7.62 -3.81,1.75 -7.94,2.86 -12.38,3.34 -4.44,0.48 -9.04,0.71 -13.81,0.71 -4.76,0 -9.36,-0.24 -13.81,-0.71 -4.44,-0.48 -8.57,-1.59 -12.38,-3.34 -3.81,-1.74 -7.22,-4.28 -10.24,-7.62 -3.02,-3.33 -5.48,-7.7 -7.38,-13.09l-39.99 -112.84c-1.58,-4.44 -3.33,-6.66 -5.24,-6.66 -2.22,0 -3.33,1.9 -3.33,5.71l4.76 135.69 -93.31 0 0 -207.1c0,-8.25 1.9,-15.39 5.71,-21.43 3.81,-6.03 8.89,-11.03 15.24,-15 6.35,-3.96 13.49,-6.9 21.42,-8.8 7.94,-1.9 16.19,-2.86 24.76,-2.86 17.45,0 31.42,2.94 41.9,8.8 10.47,5.87 18.25,15.95 23.33,30.23l39.52 109.5c2.54,7.3 5.55,10.95 9.04,10.95 3.49,0 6.51,-3.65 9.04,-10.95l39.52 -109.5c5.08,-14.28 12.85,-24.36 23.33,-30.23 10.47,-5.87 24.44,-8.8 41.89,-8.8 8.57,0 16.83,0.95 24.76,2.86 7.94,1.9 15.08,4.84 21.42,8.8 6.35,3.97 11.43,8.97 15.24,15 3.81,6.03 5.71,13.17 5.71,21.43l0 207.1 -93.31 0 4.76 -136.16c0,-2.54 -0.4,-4.12 -1.19,-4.76 -0.8,-0.64 -1.51,-0.95 -2.14,-0.95 -1.9,0 -3.65,2.22 -5.24,6.66l-39.99 113.31z"/>
   <path class="fil0" d="M1531.11 487.47c6.66,0 10.87,-1.59 12.61,-4.76 1.75,-3.18 2.62,-6.03 2.62,-8.57 0,-3.49 -1.11,-6.82 -3.33,-10 -2.22,-3.17 -6.82,-5.55 -13.81,-7.14 -3.81,-0.64 -8.25,-1.11 -13.33,-1.43 -5.08,-0.32 -8.88,-0.48 -11.43,-0.48 -5.4,0 -11.27,0.24 -17.61,0.71 -6.35,0.48 -11.27,1.67 -14.76,3.57 -4.76,2.54 -7.77,6.27 -9.04,11.19 -1.27,4.92 -1.59,10.55 -0.95,16.9l69.04 0zm-59.99 159.01c-9.52,0 -18.57,-0.16 -27.13,-0.48 -8.57,-0.32 -16.67,-1.51 -24.28,-3.57 -7.62,-2.06 -14.6,-5.32 -20.95,-9.76 -6.35,-4.44 -12.06,-10.79 -17.14,-19.05 -5.39,-9.21 -8.88,-20.87 -10.47,-34.99 -1.58,-14.13 -2.38,-32.61 -2.38,-55.47 0,-11.43 0,-22.37 0,-32.85 0,-10.48 0.56,-20.23 1.67,-29.28 1.11,-9.05 3.09,-17.38 5.95,-24.99 2.86,-7.62 7.14,-14.29 12.86,-20 5.71,-6.03 12.93,-10.71 21.66,-14.05 8.72,-3.33 18.33,-5.79 28.8,-7.38 10.47,-1.59 21.5,-2.54 33.09,-2.86 11.59,-0.32 23.41,-0.48 35.47,-0.48 25.71,0 46.97,0.79 63.79,2.38 16.82,1.58 30.31,6.5 40.47,14.76 6.03,4.76 10.87,10.63 14.52,17.61 3.65,6.99 6.43,14.29 8.33,21.9 1.9,7.62 3.09,15.31 3.57,23.09 0.48,7.78 0.72,15.15 0.72,22.14 0,8.25 -0.72,16.58 -2.14,24.99 -1.43,8.41 -5.79,15.47 -13.09,21.19 -4.13,3.49 -8.17,5.55 -12.14,6.19 -3.97,0.64 -8.17,0.95 -12.62,0.95l-137.59 0c-0.32,3.49 -0.08,7.14 0.72,10.95 0.79,3.81 1.98,6.99 3.57,9.52 4.13,6.35 10.08,9.92 17.85,10.71 7.78,0.79 15.79,1.19 24.04,1.19l122.36 0 0 67.6 -159.49 0z"/>
   <polygon class="fil0" points="1838.66,646.48 1838.66,550.31 1755.82,550.31 1755.82,646.48 1662.51,646.48 1662.51,394.16 1755.82,394.16 1755.82,482.71 1838.66,482.71 1838.66,394.16 1931.97,394.16 1931.97,646.48 "/>
   <polygon class="fil0" points="2040.53,646.48 2040.53,460.81 1946.26,460.81 1946.26,394.16 2228.11,394.16 2228.11,460.81 2133.84,460.81 2133.84,646.48 "/>
   <path class="fil0" d="M417.05 646.48c-4.44,0 -9.04,-0.48 -13.81,-1.43 -4.76,-0.95 -9.52,-3.65 -14.28,-8.09 -5.08,-4.44 -8.33,-9.12 -9.76,-14.05 -1.43,-4.92 -2.14,-10.08 -2.14,-15.47l0 -213.29 93.31 0 0 165.2c0,2.54 0.16,5.16 0.48,7.86 0.32,2.7 1.59,5.16 3.81,7.38 2.54,2.54 5.16,3.89 7.86,4.05 2.7,0.16 5.32,0.24 7.86,0.24l63.32 0 0 -184.72 93.31 0 0 184.72 39.51 0 0 67.6 -269.47 0z"/>
  </g>
 </g>
</svg>
