<?xml version="1.0" encoding="UTF-8"?>
<!DOCTYPE svg PUBLIC "-//W3C//DTD SVG 1.1//EN" "http://www.w3.org/Graphics/SVG/1.1/DTD/svg11.dtd">
<!-- Creator: CorelDRAW 2020 (64-Bit) -->
<svg xmlns="http://www.w3.org/2000/svg" xml:space="preserve" width="47.2726mm" height="6.7888mm" version="1.1" style="shape-rendering:geometricPrecision; text-rendering:geometricPrecision; image-rendering:optimizeQuality; fill-rule:evenodd; clip-rule:evenodd"
viewBox="0 0 2228.11 319.98"
 xmlns:xlink="http://www.w3.org/1999/xlink"
 xmlns:xodm="http://www.corel.com/coreldraw/odm/2003">
 <defs>
  <style type="text/css">
   <![CDATA[
    .fil0 {fill:#FEFEFE;fill-rule:nonzero}
   ]]>
  </style>
 </defs>
 <g id="Слой_x0020_1">
  <metadata id="CorelCorpID_0Corel-Layer"/>
  <g id="_2248559435952">
   <g>
    <path class="fil0" d="M106.04 225.21c0,5.63 0.47,9.93 1.41,12.91 0.94,2.97 2.34,5.08 4.22,6.33 1.88,1.25 4.22,1.95 7.04,2.11 2.81,0.16 6.1,0.23 9.85,0.23l62.4 0c3.12,0 7.11,-0.23 11.96,-0.7 4.85,-0.47 8.99,-2.27 12.43,-5.4 3.13,-2.81 4.93,-6.17 5.4,-10.09 0.47,-3.91 0.7,-7.27 0.7,-10.09 0,-3.75 -0.31,-7.19 -0.94,-10.32 -0.63,-3.13 -2.66,-5.94 -6.1,-8.45 -3.44,-2.81 -7.43,-4.46 -11.97,-4.93 -4.53,-0.47 -8.37,-0.7 -11.49,-0.7l-84.92 0 0 29.09zm205.03 -143.57l-184.86 0c-5.01,0 -8.84,0.47 -11.5,1.4 -2.66,0.94 -4.61,2.27 -5.87,3.99 -1.25,1.72 -2.03,3.75 -2.34,6.1 -0.32,2.34 -0.47,5.08 -0.47,8.21l0 23.46 151.55 0c12.82,0 23.77,2.19 32.84,6.57 9.07,4.38 16.11,9.38 21.11,15.01 4.38,5.01 7.82,10.87 10.32,17.59 2.5,6.73 4.38,13.61 5.63,20.64 1.25,7.04 2.03,13.92 2.35,20.64 0.31,6.72 0.47,12.9 0.47,18.53 0,14.07 -1.02,28.23 -3.05,42.46 -2.03,14.23 -7.12,26.51 -15.25,36.83 -0.94,1.56 -2.74,3.75 -5.4,6.57 -2.66,2.82 -6.25,5.63 -10.79,8.45 -4.54,2.81 -9.86,5.24 -15.95,7.27 -6.1,2.03 -13.22,3.05 -21.35,3.05l-212.54 0c-13.76,0 -24.87,-4.3 -33.31,-12.9 -8.45,-8.6 -12.67,-19.63 -12.67,-33.08l0 -229.9c0,-12.51 2.11,-22.28 6.33,-29.32 4.22,-7.04 9.15,-12.28 14.78,-15.72 5.63,-3.44 11.34,-5.55 17.12,-6.33 5.79,-0.78 10.09,-1.17 12.9,-1.17l259.93 0 0 81.64z"/>
    <path class="fil0" d="M512.82 171.72c6.57,0 10.71,-1.56 12.43,-4.69 1.72,-3.13 2.58,-5.94 2.58,-8.45 0,-3.44 -1.1,-6.73 -3.29,-9.85 -2.19,-3.13 -6.73,-5.48 -13.61,-7.04 -3.75,-0.62 -8.13,-1.09 -13.14,-1.4 -5.01,-0.32 -8.76,-0.47 -11.26,-0.47 -5.32,0 -11.1,0.24 -17.36,0.71 -6.26,0.47 -11.1,1.64 -14.55,3.52 -4.69,2.5 -7.66,6.18 -8.91,11.02 -1.25,4.85 -1.56,10.4 -0.94,16.66l68.03 0zm-59.11 156.71c-9.38,0 -18.3,-0.16 -26.74,-0.47 -8.45,-0.31 -16.42,-1.48 -23.93,-3.52 -7.51,-2.03 -14.39,-5.24 -20.64,-9.62 -6.25,-4.38 -11.89,-10.63 -16.89,-18.77 -5.32,-9.07 -8.76,-20.56 -10.32,-34.48 -1.56,-13.92 -2.35,-32.14 -2.35,-54.66 0,-11.26 0,-22.05 0,-32.37 0,-10.32 0.55,-19.94 1.64,-28.85 1.09,-8.92 3.05,-17.13 5.86,-24.63 2.82,-7.51 7.04,-14.08 12.67,-19.71 5.63,-5.94 12.74,-10.56 21.35,-13.84 8.6,-3.29 18.07,-5.71 28.39,-7.27 10.32,-1.56 21.19,-2.5 32.61,-2.81 11.42,-0.31 23.07,-0.47 34.95,-0.47 25.34,0 46.29,0.78 62.87,2.35 16.58,1.56 29.87,6.41 39.88,14.55 5.94,4.69 10.71,10.48 14.31,17.36 3.6,6.88 6.33,14.07 8.21,21.58 1.88,7.51 3.05,15.09 3.52,22.76 0.47,7.66 0.7,14.94 0.7,21.82 0,8.13 -0.7,16.34 -2.11,24.63 -1.4,8.29 -5.71,15.25 -12.9,20.88 -4.07,3.44 -8.06,5.47 -11.96,6.1 -3.91,0.62 -8.06,0.94 -12.43,0.94l-135.6 0c-0.31,3.44 -0.08,7.04 0.71,10.79 0.78,3.76 1.95,6.88 3.52,9.38 4.07,6.25 9.93,9.78 17.59,10.56 7.66,0.78 15.56,1.17 23.69,1.17l120.58 0 0 66.62 -157.18 0z"/>
    <path class="fil0" d="M733.81 99c0.32,-0.94 1.33,-2.66 3.05,-5.16 1.72,-2.5 4.54,-5.01 8.45,-7.51 3.91,-2.5 9.07,-4.69 15.48,-6.57 6.41,-1.88 14.63,-2.82 24.63,-2.82 10.01,0 18.22,0.94 24.63,2.82 6.41,1.88 11.58,4.06 15.48,6.57 3.91,2.5 6.65,5.01 8.21,7.51 1.56,2.5 2.66,4.22 3.29,5.16l110.26 229.43 -91.96 0 -65.21 -160.46c-0.32,-0.63 -0.86,-1.88 -1.64,-3.75 -0.78,-1.88 -1.8,-2.82 -3.05,-2.82 -1.25,0 -2.27,0.94 -3.05,2.82 -0.78,1.88 -1.33,3.12 -1.64,3.75l-65.22 160.46 -91.96 0 110.25 -229.43z"/>
    <path class="fil0" d="M1256.01 79.76l91.96 0 0 248.67 -91.96 0 0 -248.67zm-207.38 161.4c0,3.12 0.39,6.17 1.17,9.15 0.78,2.97 2.11,5.24 3.99,6.8 3.13,3.13 7.97,4.69 14.55,4.69l37.53 0c4.38,0 8.06,-0.16 11.03,-0.47 2.97,-0.31 5.39,-1.25 7.27,-2.81 3.12,-2.19 4.93,-4.85 5.39,-7.97 0.47,-3.13 0.71,-5.94 0.71,-8.45 0,-2.5 -0.16,-5.08 -0.47,-7.74 -0.31,-2.66 -1.72,-4.93 -4.22,-6.8 -0.63,-0.31 -2.27,-1.02 -4.93,-2.11 -2.66,-1.09 -7.58,-1.64 -14.78,-1.64l-57.24 0 0 17.36zm0 -161.4l0 83.04 112.13 0c13.14,0 23.54,2.42 31.2,7.27 7.66,4.85 13.21,9.46 16.65,13.84 4.38,5.63 8.06,13.69 11.03,24.17 2.97,10.48 4.45,25.1 4.45,43.87 0,4.69 -0.16,9.7 -0.47,15.02 -0.32,5.32 -1.09,10.71 -2.35,16.19 -1.25,5.47 -3.12,10.87 -5.63,16.19 -2.5,5.32 -6.1,10.17 -10.79,14.55 -6.88,6.57 -13.92,10.63 -21.11,12.2 -7.2,1.56 -15.02,2.35 -23.46,2.35l-154.36 0c-5.32,0 -11.34,-0.63 -18.06,-1.88 -6.73,-1.25 -12.9,-4.85 -18.53,-10.79 -1.88,-1.88 -4.46,-5.71 -7.74,-11.5 -3.29,-5.78 -4.93,-14.15 -4.93,-25.1l0 -199.4 91.96 0z"/>
    <path class="fil0" d="M1570.84 328.43l4.69 -129.03c0,-1.88 -0.16,-3.6 -0.47,-5.16 -0.32,-1.56 -1.41,-2.35 -3.29,-2.35 -1.56,0 -2.97,0.78 -4.22,2.35 -1.25,1.56 -2.66,3.29 -4.22,5.16l-88.21 110.26c-3.76,4.69 -7.35,8.52 -10.79,11.5 -3.44,2.97 -6.96,5.16 -10.56,6.57 -3.6,1.41 -7.43,2.35 -11.5,2.82 -4.06,0.47 -8.6,0.7 -13.6,0.7 -5.01,0 -10.56,-0.4 -16.66,-1.17 -6.1,-0.78 -11.81,-2.82 -17.12,-6.1 -5.32,-3.29 -9.78,-7.98 -13.37,-14.07 -3.6,-6.1 -5.4,-14.63 -5.4,-25.57l0 -204.57 91.96 0 -4.69 129.03c0,2.19 0.23,3.91 0.7,5.16 0.47,1.25 1.64,1.88 3.52,1.88 1.88,0 3.52,-0.86 4.93,-2.58 1.41,-1.72 2.58,-3.2 3.52,-4.45l90.08 -113.08c1.88,-2.19 3.84,-4.45 5.86,-6.8 2.04,-2.35 4.69,-4.38 7.98,-6.1 3.28,-1.72 7.19,-3.13 11.73,-4.22 4.54,-1.09 10.4,-1.64 17.6,-1.64 13.13,0 23.3,2.04 30.5,6.1 7.19,4.07 12.51,8.76 15.95,14.07 3.44,5.32 5.47,10.79 6.09,16.43 0.63,5.63 0.94,10.01 0.94,13.13l0 201.75 -91.96 0z"/>
   </g>
  </g>
 </g>
</svg>
