<?xml version="1.0" encoding="UTF-8"?>
<!DOCTYPE svg PUBLIC "-//W3C//DTD SVG 1.1//EN" "http://www.w3.org/Graphics/SVG/1.1/DTD/svg11.dtd">
<!-- Creator: CorelDRAW 2018 (64-Bit) -->
<svg xmlns="http://www.w3.org/2000/svg" xml:space="preserve" width="9.3132mm" height="1.9078mm" version="1.1" style="shape-rendering:geometricPrecision; text-rendering:geometricPrecision; image-rendering:optimizeQuality; fill-rule:evenodd; clip-rule:evenodd"
viewBox="0 0 37.2 7.62"
 xmlns:xlink="http://www.w3.org/1999/xlink">
 <defs>
  <style type="text/css">
   <![CDATA[
    .fil0 {fill:#FEFEFE;fill-rule:nonzero}
   ]]>
  </style>
 </defs>
 <g id="Слой_x0020_1">
  <metadata id="CorelCorpID_0Corel-Layer"/>
  <g id="_2178837158272">
   <path class="fil0" d="M2.37 5.25c0,0.13 0.01,0.22 0.03,0.29 0.02,0.07 0.05,0.11 0.09,0.14 0.04,0.03 0.09,0.04 0.16,0.05 0.06,0 0.14,0.01 0.22,0.01l1.4 0c0.07,0 0.16,-0.01 0.27,-0.02 0.11,-0.01 0.2,-0.05 0.28,-0.12 0.07,-0.06 0.11,-0.14 0.12,-0.23 0.01,-0.09 0.02,-0.16 0.02,-0.23 0,-0.08 -0.01,-0.16 -0.02,-0.23 -0.01,-0.07 -0.06,-0.13 -0.14,-0.19 -0.08,-0.06 -0.17,-0.1 -0.27,-0.11 -0.1,-0.01 -0.19,-0.02 -0.26,-0.02l-1.9 0 0 0.65zm4.59 -3.21l-4.13 0c-0.11,0 -0.2,0.01 -0.26,0.03 -0.06,0.02 -0.1,0.05 -0.13,0.09 -0.03,0.04 -0.05,0.08 -0.05,0.14 -0.01,0.05 -0.01,0.11 -0.01,0.18l0 0.52 3.39 0c0.29,0 0.53,0.05 0.73,0.15 0.2,0.1 0.36,0.21 0.47,0.34 0.1,0.11 0.17,0.24 0.23,0.39 0.06,0.15 0.1,0.3 0.13,0.46 0.03,0.16 0.05,0.31 0.05,0.46 0.01,0.15 0.01,0.29 0.01,0.41 0,0.31 -0.02,0.63 -0.07,0.95 -0.05,0.32 -0.16,0.59 -0.34,0.82 -0.02,0.04 -0.06,0.08 -0.12,0.15 -0.06,0.06 -0.14,0.13 -0.24,0.19 -0.1,0.06 -0.22,0.12 -0.36,0.16 -0.14,0.05 -0.3,0.07 -0.48,0.07l-4.75 0c-0.31,0 -0.56,-0.1 -0.75,-0.29 -0.19,-0.19 -0.28,-0.44 -0.28,-0.74l0 -5.14c0,-0.28 0.05,-0.5 0.14,-0.66 0.09,-0.16 0.2,-0.27 0.33,-0.35 0.13,-0.08 0.25,-0.12 0.38,-0.14 0.13,-0.02 0.23,-0.03 0.29,-0.03l5.81 0 0 1.83z"/>
   <path class="fil0" d="M11.47 4.05c0.15,0 0.24,-0.03 0.28,-0.11 0.04,-0.07 0.06,-0.13 0.06,-0.19 0,-0.08 -0.02,-0.15 -0.07,-0.22 -0.05,-0.07 -0.15,-0.12 -0.3,-0.16 -0.08,-0.01 -0.18,-0.02 -0.29,-0.03 -0.11,-0.01 -0.2,-0.01 -0.25,-0.01 -0.12,0 -0.25,0.01 -0.39,0.02 -0.14,0.01 -0.25,0.04 -0.33,0.08 -0.1,0.06 -0.17,0.14 -0.2,0.25 -0.03,0.11 -0.04,0.23 -0.02,0.37l1.52 0zm-1.32 3.51c-0.21,0 -0.41,-0 -0.6,-0.01 -0.19,-0.01 -0.37,-0.03 -0.54,-0.08 -0.17,-0.05 -0.32,-0.12 -0.46,-0.22 -0.14,-0.1 -0.27,-0.24 -0.38,-0.42 -0.12,-0.2 -0.2,-0.46 -0.23,-0.77 -0.03,-0.31 -0.05,-0.72 -0.05,-1.22 0,-0.25 0,-0.49 0,-0.72 0,-0.23 0.01,-0.45 0.04,-0.65 0.02,-0.2 0.07,-0.38 0.13,-0.55 0.06,-0.17 0.16,-0.31 0.28,-0.44 0.13,-0.13 0.29,-0.24 0.48,-0.31 0.19,-0.07 0.4,-0.13 0.63,-0.16 0.23,-0.04 0.47,-0.06 0.73,-0.06 0.26,-0.01 0.52,-0.01 0.78,-0.01 0.57,0 1.04,0.02 1.41,0.05 0.37,0.04 0.67,0.14 0.89,0.33 0.13,0.11 0.24,0.23 0.32,0.39 0.08,0.15 0.14,0.32 0.18,0.48 0.04,0.17 0.07,0.34 0.08,0.51 0.01,0.17 0.02,0.33 0.02,0.49 0,0.18 -0.02,0.37 -0.05,0.55 -0.03,0.19 -0.13,0.34 -0.29,0.47 -0.09,0.08 -0.18,0.12 -0.27,0.14 -0.09,0.01 -0.18,0.02 -0.28,0.02l-3.03 0c-0.01,0.08 -0,0.16 0.02,0.24 0.02,0.08 0.04,0.15 0.08,0.21 0.09,0.14 0.22,0.22 0.39,0.24 0.17,0.02 0.35,0.03 0.53,0.03l2.7 0 0 1.49 -3.52 0z"/>
   <path class="fil0" d="M16.42 2.42c0.01,-0.02 0.03,-0.06 0.07,-0.12 0.04,-0.06 0.1,-0.11 0.19,-0.17 0.09,-0.06 0.2,-0.11 0.35,-0.15 0.14,-0.04 0.33,-0.06 0.55,-0.06 0.22,0 0.41,0.02 0.55,0.06 0.14,0.04 0.26,0.09 0.35,0.15 0.09,0.06 0.15,0.11 0.18,0.17 0.03,0.06 0.06,0.09 0.07,0.12l2.47 5.13 -2.06 0 -1.46 -3.59c-0.01,-0.01 -0.02,-0.04 -0.04,-0.08 -0.02,-0.04 -0.04,-0.06 -0.07,-0.06 -0.03,0 -0.05,0.02 -0.07,0.06 -0.02,0.04 -0.03,0.07 -0.04,0.08l-1.46 3.59 -2.06 0 2.47 -5.13z"/>
   <path class="fil0" d="M28.1 1.99l2.06 0 0 5.56 -2.06 0 0 -5.56zm-4.64 3.61c0,0.07 0.01,0.14 0.03,0.2 0.02,0.07 0.05,0.12 0.09,0.15 0.07,0.07 0.18,0.11 0.33,0.11l0.84 0c0.1,0 0.18,-0 0.25,-0.01 0.07,-0.01 0.12,-0.03 0.16,-0.06 0.07,-0.05 0.11,-0.11 0.12,-0.18 0.01,-0.07 0.02,-0.13 0.02,-0.19 0,-0.06 -0,-0.11 -0.01,-0.17 -0.01,-0.06 -0.04,-0.11 -0.09,-0.15 -0.01,-0.01 -0.05,-0.02 -0.11,-0.05 -0.06,-0.02 -0.17,-0.04 -0.33,-0.04l-1.28 0 0 0.39zm0 -3.61l0 1.86 2.51 0c0.29,0 0.53,0.05 0.7,0.16 0.17,0.11 0.3,0.21 0.37,0.31 0.1,0.13 0.18,0.31 0.25,0.54 0.07,0.23 0.1,0.56 0.1,0.98 0,0.1 -0,0.22 -0.01,0.34 -0.01,0.12 -0.02,0.24 -0.05,0.36 -0.03,0.12 -0.07,0.24 -0.13,0.36 -0.06,0.12 -0.14,0.23 -0.24,0.33 -0.15,0.15 -0.31,0.24 -0.47,0.27 -0.16,0.03 -0.34,0.05 -0.52,0.05l-3.45 0c-0.12,0 -0.25,-0.01 -0.4,-0.04 -0.15,-0.03 -0.29,-0.11 -0.41,-0.24 -0.04,-0.04 -0.1,-0.13 -0.17,-0.26 -0.07,-0.13 -0.11,-0.32 -0.11,-0.56l0 -4.46 2.06 0z"/>
   <path class="fil0" d="M35.14 7.56l0.11 -2.89c0,-0.04 -0,-0.08 -0.01,-0.12 -0.01,-0.03 -0.03,-0.05 -0.07,-0.05 -0.04,0 -0.07,0.02 -0.09,0.05 -0.03,0.04 -0.06,0.07 -0.09,0.12l-1.97 2.47c-0.08,0.11 -0.16,0.19 -0.24,0.26 -0.08,0.07 -0.16,0.12 -0.24,0.15 -0.08,0.03 -0.17,0.05 -0.26,0.06 -0.09,0.01 -0.19,0.02 -0.3,0.02 -0.11,0 -0.24,-0.01 -0.37,-0.03 -0.14,-0.02 -0.26,-0.06 -0.38,-0.14 -0.12,-0.07 -0.22,-0.18 -0.3,-0.32 -0.08,-0.14 -0.12,-0.33 -0.12,-0.57l0 -4.58 2.06 0 -0.1 2.89c0,0.05 0.01,0.09 0.02,0.12 0.01,0.03 0.04,0.04 0.08,0.04 0.04,0 0.08,-0.02 0.11,-0.06 0.03,-0.04 0.06,-0.07 0.08,-0.1l2.02 -2.53c0.04,-0.05 0.09,-0.1 0.13,-0.15 0.05,-0.05 0.11,-0.1 0.18,-0.14 0.07,-0.04 0.16,-0.07 0.26,-0.09 0.1,-0.02 0.23,-0.04 0.39,-0.04 0.29,0 0.52,0.05 0.68,0.14 0.16,0.09 0.28,0.2 0.36,0.31 0.08,0.12 0.12,0.24 0.14,0.37 0.01,0.13 0.02,0.22 0.02,0.29l0 4.51 -2.06 0z"/>
  </g>
  <path class="fil0" d="M33.98 0.74c0.16,0 0.3,-0.02 0.41,-0.05 0.12,-0.03 0.23,-0.12 0.35,-0.24 0.12,-0.13 0.2,-0.28 0.25,-0.45l1.35 0c-0.06,0.24 -0.15,0.49 -0.27,0.73 -0.12,0.24 -0.27,0.44 -0.44,0.59 -0.13,0.11 -0.26,0.2 -0.4,0.27 -0.14,0.07 -0.28,0.12 -0.42,0.15 -0.14,0.04 -0.29,0.06 -0.43,0.07 -0.14,0.01 -0.28,0.02 -0.41,0.02 -0.13,0 -0.27,-0.01 -0.41,-0.02 -0.14,-0.01 -0.29,-0.03 -0.43,-0.07 -0.14,-0.04 -0.28,-0.09 -0.42,-0.15 -0.14,-0.07 -0.27,-0.16 -0.4,-0.27 -0.17,-0.15 -0.31,-0.35 -0.44,-0.59 -0.12,-0.24 -0.21,-0.48 -0.27,-0.73l1.35 0c0.05,0.17 0.13,0.33 0.25,0.45 0.12,0.13 0.24,0.21 0.35,0.24 0.12,0.04 0.25,0.05 0.41,0.05z"/>
 </g>
</svg>
