<?xml version="1.0" encoding="UTF-8"?>
<!DOCTYPE svg PUBLIC "-//W3C//DTD SVG 1.1//EN" "http://www.w3.org/Graphics/SVG/1.1/DTD/svg11.dtd">
<!-- Creator: CorelDRAW 2018 (64-Bit) -->
<svg xmlns="http://www.w3.org/2000/svg" xml:space="preserve" width="10.3902mm" height="1.4486mm" version="1.1" style="shape-rendering:geometricPrecision; text-rendering:geometricPrecision; image-rendering:optimizeQuality; fill-rule:evenodd; clip-rule:evenodd"
viewBox="0 0 52.17 7.27"
 xmlns:xlink="http://www.w3.org/1999/xlink">
 <defs>
  <style type="text/css">
   <![CDATA[
    .fil0 {fill:#FEFEFE}
   ]]>
  </style>
 </defs>
 <g id="Слой_x0020_1">
  <metadata id="CorelCorpID_0Corel-Layer"/>
  <g id="_2178608047312">
   <path class="fil0" d="M13.41 2.71c0.19,0 0.31,-0.04 0.36,-0.13 0.05,-0.09 0.07,-0.17 0.07,-0.24 0,-0.1 -0.03,-0.19 -0.09,-0.28 -0.06,-0.09 -0.19,-0.16 -0.39,-0.2 -0.11,-0.02 -0.23,-0.03 -0.38,-0.04 -0.14,-0.01 -0.25,-0.01 -0.32,-0.01 -0.15,0 -0.32,0.01 -0.5,0.02 -0.18,0.01 -0.32,0.05 -0.42,0.1 -0.13,0.07 -0.22,0.18 -0.25,0.32 -0.04,0.14 -0.04,0.3 -0.03,0.48l1.95 0 0 0zm-1.69 4.48c-0.27,0 -0.52,-0 -0.76,-0.01 -0.24,-0.01 -0.47,-0.04 -0.68,-0.1 -0.21,-0.06 -0.41,-0.15 -0.59,-0.28 -0.18,-0.13 -0.34,-0.3 -0.48,-0.54 -0.15,-0.26 -0.25,-0.59 -0.3,-0.99 -0.04,-0.4 -0.07,-0.92 -0.07,-1.56 0,-0.32 0,-0.63 0,-0.93 0,-0.3 0.02,-0.57 0.05,-0.83 0.03,-0.26 0.09,-0.49 0.17,-0.7 0.08,-0.21 0.2,-0.4 0.36,-0.56 0.16,-0.17 0.36,-0.3 0.61,-0.4 0.25,-0.09 0.52,-0.16 0.81,-0.21 0.29,-0.05 0.61,-0.07 0.93,-0.08 0.33,-0.01 0.66,-0.01 1,-0.01 0.73,0 1.32,0.02 1.8,0.07 0.47,0.04 0.85,0.18 1.14,0.42 0.17,0.13 0.31,0.3 0.41,0.5 0.1,0.2 0.18,0.4 0.23,0.62 0.05,0.21 0.09,0.43 0.1,0.65 0.01,0.22 0.02,0.43 0.02,0.62 0,0.23 -0.02,0.47 -0.06,0.7 -0.04,0.24 -0.16,0.44 -0.37,0.6 -0.12,0.1 -0.23,0.16 -0.34,0.17 -0.11,0.02 -0.23,0.03 -0.36,0.03l-3.88 0c-0.01,0.1 -0,0.2 0.02,0.31 0.02,0.11 0.06,0.2 0.1,0.27 0.12,0.18 0.28,0.28 0.5,0.3 0.22,0.02 0.44,0.03 0.68,0.03l3.45 0 0 1.91 -4.5 0 -0 0z"/>
   <path class="fil0" d="M23.44 6.58c-0.05,0.15 -0.12,0.28 -0.21,0.37 -0.08,0.09 -0.18,0.17 -0.29,0.21 -0.11,0.05 -0.22,0.08 -0.35,0.09 -0.13,0.01 -0.26,0.02 -0.39,0.02 -0.13,0 -0.26,-0.01 -0.39,-0.02 -0.13,-0.01 -0.24,-0.04 -0.35,-0.09 -0.11,-0.05 -0.2,-0.12 -0.29,-0.21 -0.09,-0.09 -0.15,-0.22 -0.21,-0.37l-1.13 -3.18c-0.04,-0.13 -0.09,-0.19 -0.15,-0.19 -0.06,0 -0.09,0.05 -0.09,0.16l0.13 3.82 -2.63 0 0 -5.84c0,-0.23 0.05,-0.43 0.16,-0.6 0.11,-0.17 0.25,-0.31 0.43,-0.42 0.18,-0.11 0.38,-0.19 0.6,-0.25 0.22,-0.05 0.46,-0.08 0.7,-0.08 0.49,0 0.89,0.08 1.18,0.25 0.3,0.17 0.51,0.45 0.66,0.85l1.11 3.09c0.07,0.21 0.16,0.31 0.26,0.31 0.1,0 0.18,-0.1 0.25,-0.31l1.11 -3.09c0.14,-0.4 0.36,-0.69 0.66,-0.85 0.3,-0.17 0.69,-0.25 1.18,-0.25 0.24,0 0.47,0.03 0.7,0.08 0.22,0.05 0.42,0.14 0.6,0.25 0.18,0.11 0.32,0.25 0.43,0.42 0.11,0.17 0.16,0.37 0.16,0.6l0 5.84 -2.63 0 0.13 -3.84c0,-0.07 -0.01,-0.12 -0.03,-0.13 -0.02,-0.02 -0.04,-0.03 -0.06,-0.03 -0.05,0 -0.1,0.06 -0.15,0.19l-1.13 3.19 0 0z"/>
   <path class="fil0" d="M32.53 2.71c0.19,0 0.31,-0.04 0.36,-0.13 0.05,-0.09 0.07,-0.17 0.07,-0.24 0,-0.1 -0.03,-0.19 -0.09,-0.28 -0.06,-0.09 -0.19,-0.16 -0.39,-0.2 -0.11,-0.02 -0.23,-0.03 -0.38,-0.04 -0.14,-0.01 -0.25,-0.01 -0.32,-0.01 -0.15,0 -0.32,0.01 -0.5,0.02 -0.18,0.01 -0.32,0.05 -0.42,0.1 -0.13,0.07 -0.22,0.18 -0.26,0.32 -0.04,0.14 -0.04,0.3 -0.03,0.48l1.95 0 0 0zm-1.69 4.48c-0.27,0 -0.52,-0 -0.76,-0.01 -0.24,-0.01 -0.47,-0.04 -0.68,-0.1 -0.21,-0.06 -0.41,-0.15 -0.59,-0.28 -0.18,-0.13 -0.34,-0.3 -0.48,-0.54 -0.15,-0.26 -0.25,-0.59 -0.3,-0.99 -0.04,-0.4 -0.07,-0.92 -0.07,-1.56 0,-0.32 0,-0.63 0,-0.93 0,-0.3 0.02,-0.57 0.05,-0.83 0.03,-0.26 0.09,-0.49 0.17,-0.7 0.08,-0.21 0.2,-0.4 0.36,-0.56 0.16,-0.17 0.36,-0.3 0.61,-0.4 0.25,-0.09 0.52,-0.16 0.81,-0.21 0.3,-0.05 0.61,-0.07 0.93,-0.08 0.33,-0.01 0.66,-0.01 1,-0.01 0.72,0 1.32,0.02 1.8,0.07 0.47,0.04 0.85,0.18 1.14,0.42 0.17,0.13 0.31,0.3 0.41,0.5 0.1,0.2 0.18,0.4 0.23,0.62 0.05,0.21 0.09,0.43 0.1,0.65 0.01,0.22 0.02,0.43 0.02,0.62 0,0.23 -0.02,0.47 -0.06,0.7 -0.04,0.24 -0.16,0.44 -0.37,0.6 -0.12,0.1 -0.23,0.16 -0.34,0.17 -0.11,0.02 -0.23,0.03 -0.36,0.03l-3.88 0c-0.01,0.1 -0,0.2 0.02,0.31 0.02,0.11 0.06,0.2 0.1,0.27 0.12,0.18 0.28,0.28 0.5,0.3 0.22,0.02 0.45,0.03 0.68,0.03l3.45 0 0 1.91 -4.5 0 -0 0z"/>
   <polygon class="fil0" points="41.2,7.19 41.2,4.48 38.86,4.48 38.86,7.19 36.23,7.19 36.23,0.08 38.86,0.08 38.86,2.58 41.2,2.58 41.2,0.08 43.83,0.08 43.83,7.19 "/>
   <polygon class="fil0" points="46.89,7.19 46.89,1.96 44.23,1.96 44.23,0.08 52.17,0.08 52.17,1.96 49.52,1.96 49.52,7.19 "/>
   <path class="fil0" d="M1.13 7.19c-0.13,0 -0.25,-0.01 -0.39,-0.04 -0.13,-0.03 -0.27,-0.1 -0.4,-0.23 -0.14,-0.13 -0.23,-0.26 -0.28,-0.4 -0.04,-0.14 -0.06,-0.28 -0.06,-0.44l0 -6.01 2.63 0 0 4.66c0,0.07 0,0.15 0.01,0.22 0.01,0.08 0.04,0.15 0.11,0.21 0.07,0.07 0.15,0.11 0.22,0.11 0.08,0 0.15,0.01 0.22,0.01l1.78 0 0 -5.21 2.63 0 0 5.21 1.11 0 0 1.91 -7.6 0 0 0z"/>
  </g>
 </g>
</svg>
